<svg width="148" height="32" viewBox="0 0 148 32" fill="none" xmlns="http://www.w3.org/2000/svg">
<path d="M5.60742 7.7096L5.72754 7.8512L16.9902 21.152L28.2412 7.8512L28.3613 7.7096H32.8467L32.2871 8.37074L19.0078 24.0621L18.8867 24.2047H15.0928L14.9727 24.0621L1.69336 8.37074L1.13379 7.7096H5.60742ZM65.8232 7.7096C67.194 7.70965 68.3741 8.20096 69.3408 9.17445L69.5176 9.35804C70.3749 10.2888 70.8085 11.4032 70.8086 12.6832V19.2301C70.8086 20.5101 70.375 21.6272 69.5186 22.5641L69.3418 22.7496C68.3744 23.7168 67.194 24.2047 65.8232 24.2047H48.8262C47.4621 24.2047 46.2824 23.7164 45.3086 22.7506L45.3057 22.7477C44.34 21.7739 43.8516 20.5942 43.8516 19.2301V12.6832C43.8517 11.3192 44.3399 10.1423 45.3066 9.17542L45.4922 8.99866C46.429 8.14239 47.5463 7.7096 48.8262 7.7096H65.8232ZM100.992 7.7096C103.263 7.7096 105.215 8.51934 106.825 10.1295L107.118 10.4352C108.534 11.9848 109.246 13.8336 109.246 15.9625C109.246 18.2264 108.435 20.1739 106.825 21.7838C105.215 23.3941 103.263 24.2047 100.992 24.2047H82.2891V7.7096H100.992ZM48.8262 11.1334C48.4453 11.1334 48.1231 11.2468 47.8447 11.4791L47.7285 11.5866C47.4144 11.9008 47.2648 12.2596 47.2646 12.6832V19.2301C47.2646 19.6089 47.3801 19.93 47.6172 20.2086L47.7256 20.3248L47.7314 20.3307L47.8477 20.4401C48.1262 20.677 48.4476 20.7916 48.8262 20.7916H65.8232C66.2561 20.7916 66.6185 20.6409 66.9316 20.3278L67.0381 20.2116C67.2705 19.9331 67.3838 19.6111 67.3838 19.2301V12.6832C67.3837 12.257 67.2365 11.8973 66.9287 11.5836V11.5826C66.6175 11.2799 66.2558 11.1335 65.8232 11.1334H48.8262ZM85.7021 20.7916H100.992C102.333 20.7916 103.463 20.3218 104.403 19.3746L104.404 19.3737L104.576 19.194C105.409 18.2834 105.821 17.2122 105.821 15.9625C105.821 14.7055 105.409 13.631 104.576 12.7203L104.404 12.5397C103.464 11.5995 102.334 11.1334 100.992 11.1334H85.7021V20.7916Z" fill="#30303D" stroke="#30303D" stroke-width="0.803477"/>
<path d="M129.999 21.5789C126.802 24.84 123.568 28.0663 120.333 31.2891C120.087 31.5334 119.702 31.7778 119.379 31.7815C116.027 31.8161 112.675 31.8034 109.322 31.7979C109.112 31.7979 109.04 31.5046 109.189 31.3564C113.787 26.7838 118.327 22.2666 122.819 17.7987C123.718 16.9039 123.728 15.451 122.84 14.5446C118.281 9.88965 113.814 5.32966 109.298 0.719393C109.087 0.504054 109.222 0.117841 109.523 0.117841C112.687 0.112369 115.85 0.0996023 119.012 0.134255C119.395 0.137903 119.87 0.320287 120.141 0.584743C123.43 3.79287 126.698 7.02289 129.95 10.2693C133.209 13.5249 133.238 18.276 129.999 21.5789Z" fill="url(#paint0_linear_45_5445)"/>
<path d="M147.8 31.4869C147.932 31.6153 147.784 31.847 147.6 31.8597C147.415 31.8726 147.257 31.8826 147.099 31.8826C143.993 31.8863 140.887 31.9027 137.781 31.8644C137.373 31.8607 136.864 31.6875 136.574 31.4103C134.898 29.8035 133.284 28.1328 131.622 26.5096C131.217 26.112 131.214 25.8567 131.622 25.4609C133.196 23.9435 134.746 22.3987 136.289 20.8502C136.597 20.542 136.824 20.4836 137.157 20.8192C140.699 24.3812 144.252 27.9322 147.8 31.4869Z" fill="url(#paint1_linear_45_5445)"/>
<path d="M147.922 0.156012C144.411 3.74799 140.876 7.36305 137.242 11.0796C136.933 11.3958 136.425 11.3969 136.114 11.0821C134.777 9.72626 133.5 8.43196 132.222 7.13766C131.168 6.06707 131.166 6.06707 132.209 5.02748C133.699 3.54288 135.182 2.04551 136.698 0.584613C136.944 0.349338 137.338 0.139597 137.664 0.135949C140.986 0.10312 144.307 0.115887 147.628 0.117711C147.759 0.117711 147.891 0.15054 147.922 0.156012Z" fill="url(#paint2_linear_45_5445)"/>
<defs>
<linearGradient id="paint0_linear_45_5445" x1="120.59" y1="0.11097" x2="120.59" y2="31.8048" gradientUnits="userSpaceOnUse">
<stop stop-color="#A637DE"/>
<stop offset="1" stop-color="#E2773A"/>
</linearGradient>
<linearGradient id="paint1_linear_45_5445" x1="139.659" y1="20.5921" x2="139.659" y2="31.8892" gradientUnits="userSpaceOnUse">
<stop stop-color="#A637DE"/>
<stop offset="1" stop-color="#E2773A"/>
</linearGradient>
<linearGradient id="paint2_linear_45_5445" x1="139.675" y1="0.11375" x2="139.675" y2="11.6553" gradientUnits="userSpaceOnUse">
<stop stop-color="#A637DE"/>
<stop offset="1" stop-color="#E2773A"/>
</linearGradient>
</defs>
</svg>
