<svg width="49" height="49" viewBox="0 0 49 49" fill="none" xmlns="http://www.w3.org/2000/svg">
<path d="M0.5 24.5C0.5 11.2452 11.2452 0.5 24.5 0.5C37.7548 0.5 48.5 11.2452 48.5 24.5C48.5 37.7548 37.7548 48.5 24.5 48.5C11.2452 48.5 0.5 37.7548 0.5 24.5Z" fill="#FFE0E1"/>
<path d="M22.8201 31.47C22.9601 31.58 23.1001 31.68 23.2501 31.79C24.3901 32.62 25.5401 33.28 26.6901 33.77C27.8401 34.26 28.9301 34.5 29.9501 34.5C30.6501 34.5 31.3001 34.37 31.9001 34.12C32.5101 33.87 33.0501 33.48 33.5401 32.94C33.8301 32.62 34.0501 32.28 34.2201 31.92C34.3901 31.56 34.4701 31.19 34.4701 30.83C34.4701 30.55 34.4101 30.3 34.3101 30.05C34.2001 29.8 34.0201 29.59 33.7601 29.41L30.4501 27.06C30.2001 26.89 29.9701 26.76 29.7501 26.67C29.5301 26.58 29.3301 26.54 29.1401 26.54C28.8901 26.54 28.6601 26.61 28.4301 26.75C28.2001 26.87 27.9601 27.06 27.7101 27.31L26.9501 28.06C26.8401 28.17 26.7101 28.23 26.5401 28.23C26.4501 28.23 26.3701 28.22 26.2901 28.19C26.2201 28.16 26.1601 28.13 26.1101 28.11C25.9201 28.01 25.7001 27.87 25.4601 27.69" stroke="#D55357" stroke-width="1.5" stroke-miterlimit="10" stroke-linecap="round" stroke-linejoin="round"/>
<path d="M23.23 25.72C22.71 25.19 22.23 24.66 21.78 24.14C21.34 23.62 21.03 23.19 20.85 22.86C20.83 22.8 20.8 22.74 20.77 22.66C20.75 22.58 20.74 22.51 20.74 22.43C20.74 22.27 20.79 22.14 20.9 22.03L21.66 21.24C21.9 21 22.09 20.76 22.22 20.53C22.36 20.3 22.43 20.06 22.43 19.82C22.43 19.63 22.38 19.42 22.29 19.21C22.2 18.99 22.07 18.76 21.89 18.51L19.57 15.24C19.39 14.98 19.16 14.8 18.9 14.68C18.65 14.56 18.37 14.5 18.09 14.5C17.35 14.5 16.65 14.81 16.01 15.44C15.48 15.94 15.1 16.5 14.86 17.11C14.62 17.71 14.5 18.36 14.5 19.04C14.5 20.08 14.74 21.17 15.22 22.31C15.7 23.44 16.36 24.58 17.18 25.72C18.01 26.86 18.94 27.95 19.97 28.99" stroke="#D55357" stroke-width="1.5" stroke-miterlimit="10" stroke-linecap="round" stroke-linejoin="round"/>
<path d="M34.5 14.5L14.5 34.5" stroke="#D55357" stroke-width="1.5" stroke-linecap="round" stroke-linejoin="round"/>
</svg>
