<svg width="49" height="49" viewBox="0 0 49 49" fill="none" xmlns="http://www.w3.org/2000/svg">
<path d="M0.25 24.5C0.25 11.2452 10.9952 0.5 24.25 0.5C37.5048 0.5 48.25 11.2452 48.25 24.5C48.25 37.7548 37.5048 48.5 24.25 48.5C10.9952 48.5 0.25 37.7548 0.25 24.5Z" fill="#F2FFFB"/>
<path d="M34.22 30.83C34.22 31.19 34.14 31.56 33.97 31.92C33.8 32.28 33.58 32.62 33.29 32.94C32.8 33.48 32.26 33.87 31.65 34.12C31.05 34.37 30.4 34.5 29.7 34.5C28.68 34.5 27.59 34.26 26.44 33.77C25.29 33.28 24.14 32.62 23 31.79C21.85 30.95 20.76 30.02 19.72 28.99C18.69 27.95 17.76 26.86 16.93 25.72C16.11 24.58 15.45 23.44 14.97 22.31C14.49 21.17 14.25 20.08 14.25 19.04C14.25 18.36 14.37 17.71 14.61 17.11C14.85 16.5 15.23 15.94 15.76 15.44C16.4 14.81 17.1 14.5 17.84 14.5C18.12 14.5 18.4 14.56 18.65 14.68C18.91 14.8 19.14 14.98 19.32 15.24L21.64 18.51C21.82 18.76 21.95 18.99 22.04 19.21C22.13 19.42 22.18 19.63 22.18 19.82C22.18 20.06 22.11 20.3 21.97 20.53C21.84 20.76 21.65 21 21.41 21.24L20.65 22.03C20.54 22.14 20.49 22.27 20.49 22.43C20.49 22.51 20.5 22.58 20.52 22.66C20.55 22.74 20.58 22.8 20.6 22.86C20.78 23.19 21.09 23.62 21.53 24.14C21.98 24.66 22.46 25.19 22.98 25.72C23.52 26.25 24.04 26.74 24.57 27.19C25.09 27.63 25.52 27.93 25.86 28.11C25.91 28.13 25.97 28.16 26.04 28.19C26.12 28.22 26.2 28.23 26.29 28.23C26.46 28.23 26.59 28.17 26.7 28.06L27.46 27.31C27.71 27.06 27.95 26.87 28.18 26.75C28.41 26.61 28.64 26.54 28.89 26.54C29.08 26.54 29.28 26.58 29.5 26.67C29.72 26.76 29.95 26.89 30.2 27.06L33.51 29.41C33.77 29.59 33.95 29.8 34.06 30.05C34.16 30.3 34.22 30.55 34.22 30.83Z" stroke="#10A376" stroke-width="1.5" stroke-miterlimit="10"/>
<path d="M30.75 21.5C30.75 20.9 30.28 19.98 29.58 19.23C28.94 18.54 28.09 18 27.25 18" stroke="#10A376" stroke-width="1.5" stroke-linecap="round" stroke-linejoin="round"/>
<path d="M34.25 21.5C34.25 17.63 31.12 14.5 27.25 14.5" stroke="#10A376" stroke-width="1.5" stroke-linecap="round" stroke-linejoin="round"/>
</svg>
