<svg width="32" height="32" viewBox="0 0 32 32" fill="none" xmlns="http://www.w3.org/2000/svg">
<path d="M0 16C0 7.16344 7.16344 0 16 0C24.8366 0 32 7.16344 32 16C32 24.8366 24.8366 32 16 32C7.16344 32 0 24.8366 0 16Z" fill="#E76060"/>
<path d="M7.35571 17.9304C7.16479 17.7395 7.01099 17.5008 6.91023 17.2198C6.80947 16.9387 6.74583 16.6417 6.72992 16.3182C6.7034 15.772 6.78295 15.2788 6.97387 14.8227C7.15949 14.3719 7.43526 13.9582 7.80649 13.587C8.34742 13.0461 9.05276 12.5953 9.92251 12.2453C10.7922 11.8952 11.7521 11.6354 12.7969 11.471C13.8523 11.3066 14.9235 11.2217 16.0213 11.2164C17.1191 11.2217 18.1904 11.3066 19.2351 11.471C20.2745 11.6407 21.2291 11.8952 22.083 12.24C22.9421 12.59 23.6474 13.0408 24.199 13.5923C24.5596 13.9529 24.8407 14.3613 25.0316 14.8068C25.2278 15.2575 25.3233 15.756 25.3074 16.3023C25.3021 16.9758 25.0952 17.5114 24.7028 17.9039C24.5543 18.0524 24.374 18.1691 24.1778 18.238C23.9763 18.3122 23.7588 18.3388 23.5255 18.2963L20.5609 17.7925C20.3329 17.7554 20.142 17.7024 19.9776 17.6334C19.8185 17.5698 19.6806 17.4849 19.5798 17.3842C19.4525 17.2569 19.3624 17.0925 19.3147 16.8963C19.2616 16.7053 19.2351 16.4773 19.2351 16.2227L19.2192 15.4007C19.2192 15.2841 19.1768 15.1886 19.0919 15.1037C19.0495 15.0613 19.0071 15.0295 18.954 14.9977C18.8957 14.9712 18.848 14.9553 18.8055 14.934C18.5351 14.8545 18.1426 14.7908 17.6335 14.7484C17.1191 14.7113 16.5835 14.6848 16.0266 14.6795C15.4592 14.6848 14.9235 14.7007 14.4038 14.7431C13.8947 14.7855 13.5075 14.8545 13.2318 14.9393C13.1946 14.9552 13.1469 14.9712 13.0939 14.9924C13.0355 15.0189 12.9878 15.056 12.9401 15.1037C12.8499 15.1939 12.8128 15.2947 12.8128 15.4113L12.8075 16.2121C12.8075 16.4773 12.781 16.7053 12.7226 16.891C12.6749 17.0872 12.5901 17.2463 12.4575 17.3789C12.3567 17.4796 12.2294 17.5645 12.065 17.6334C11.9006 17.7024 11.7097 17.7554 11.487 17.7978L8.48531 18.3069C8.25197 18.3494 8.04514 18.3335 7.85422 18.2592C7.6686 18.1797 7.5042 18.0789 7.35571 17.9304Z" stroke="white" stroke-miterlimit="10"/>
</svg>
