<svg width="57" height="57" viewBox="0 0 57 57" fill="none" xmlns="http://www.w3.org/2000/svg">
<path d="M0.666016 28.5C0.666016 13.036 13.202 0.5 28.666 0.5C44.13 0.5 56.666 13.036 56.666 28.5C56.666 43.964 44.13 56.5 28.666 56.5C13.202 56.5 0.666016 43.964 0.666016 28.5Z" fill="#F0EFFC"/>
<path d="M38.3368 30.8L37.9368 35.8C37.7868 37.33 37.6668 38.5 34.9568 38.5H22.3768C19.6668 38.5 19.5468 37.33 19.3968 35.8L18.9968 30.8C18.9168 29.97 19.1768 29.2 19.6468 28.61C19.6568 28.6 19.6568 28.6 19.6668 28.59C20.2168 27.92 21.0468 27.5 21.9768 27.5H35.3568C36.2868 27.5 37.1068 27.92 37.6468 28.57C37.6568 28.58 37.6668 28.59 37.6668 28.6C38.1568 29.19 38.4268 29.96 38.3368 30.8Z" stroke="#8206C0" stroke-width="1.5" stroke-miterlimit="10"/>
<path d="M20.166 27.93V22.78C20.166 19.38 21.016 18.53 24.416 18.53H25.686C26.956 18.53 27.246 18.91 27.726 19.55L28.996 21.25C29.316 21.67 29.506 21.93 30.356 21.93H32.906C36.306 21.93 37.156 22.78 37.156 26.18V27.97" stroke="#8206C0" stroke-width="1.5" stroke-miterlimit="10" stroke-linecap="round" stroke-linejoin="round"/>
<path d="M26.0957 33.5H31.2357" stroke="#8206C0" stroke-width="1.5" stroke-miterlimit="10" stroke-linecap="round" stroke-linejoin="round"/>
</svg>
