<svg width="25" height="24" viewBox="0 0 25 24" fill="none" xmlns="http://www.w3.org/2000/svg">
<path d="M7.03345 12C3.03345 12 3.03345 13.79 3.03345 16V17C3.03345 19.76 3.03345 22 8.03345 22H16.0334C20.0334 22 21.0334 19.76 21.0334 17V16C21.0334 13.79 21.0334 12 17.0334 12C16.0334 12 15.7534 12.21 15.2334 12.6L14.2134 13.68C13.0334 14.94 11.0334 14.94 9.84345 13.68L8.83345 12.6C8.31345 12.21 8.03345 12 7.03345 12Z" stroke="#6E62E5" stroke-width="1.5" stroke-miterlimit="10" stroke-linecap="round" stroke-linejoin="round"/>
<path d="M19.0334 12V6C19.0334 3.79 19.0334 2 15.0334 2H9.03345C5.03345 2 5.03345 3.79 5.03345 6V12" stroke="#6E62E5" stroke-width="1.5" stroke-miterlimit="10" stroke-linecap="round" stroke-linejoin="round"/>
</svg>
