<svg width="25" height="24" viewBox="0 0 25 24" fill="none" xmlns="http://www.w3.org/2000/svg">
<path d="M12.3334 22C17.8562 22 22.3334 17.5228 22.3334 12C22.3334 6.47715 17.8562 2 12.3334 2C6.81053 2 2.33337 6.47715 2.33337 12C2.33337 17.5228 6.81053 22 12.3334 22Z" stroke="#8206C0" stroke-width="1.5" stroke-linecap="round" stroke-linejoin="round"/>
<path d="M8.33335 3H9.33335C7.38335 8.84 7.38335 15.16 9.33335 21H8.33335" stroke="#8206C0" stroke-width="1.5" stroke-linecap="round" stroke-linejoin="round"/>
<path d="M15.3334 3C17.2834 8.84 17.2834 15.16 15.3334 21" stroke="#8206C0" stroke-width="1.5" stroke-linecap="round" stroke-linejoin="round"/>
<path d="M3.33337 16V15C9.17337 16.95 15.4934 16.95 21.3334 15V16" stroke="#8206C0" stroke-width="1.5" stroke-linecap="round" stroke-linejoin="round"/>
<path d="M3.33337 9.0001C9.17337 7.0501 15.4934 7.0501 21.3334 9.0001" stroke="#8206C0" stroke-width="1.5" stroke-linecap="round" stroke-linejoin="round"/>
</svg>
