<svg width="25" height="24" viewBox="0 0 25 24" fill="none" xmlns="http://www.w3.org/2000/svg">
<path d="M12.3334 19.5C16.4755 19.5 19.8334 16.1421 19.8334 12C19.8334 7.85786 16.4755 4.5 12.3334 4.5C8.19124 4.5 4.83337 7.85786 4.83337 12C4.83337 16.1421 8.19124 19.5 12.3334 19.5Z" stroke="#8206C0" stroke-width="1.5" stroke-linecap="round" stroke-linejoin="round"/>
<path d="M12.3334 15C13.9902 15 15.3334 13.6569 15.3334 12C15.3334 10.3431 13.9902 9 12.3334 9C10.6765 9 9.33337 10.3431 9.33337 12C9.33337 13.6569 10.6765 15 12.3334 15Z" stroke="#8206C0" stroke-width="1.5" stroke-linecap="round" stroke-linejoin="round"/>
<path d="M12.3334 4V2" stroke="#8206C0" stroke-width="1.5" stroke-linecap="round" stroke-linejoin="round"/>
<path d="M4.33337 12H2.33337" stroke="#8206C0" stroke-width="1.5" stroke-linecap="round" stroke-linejoin="round"/>
<path d="M12.3334 20V22" stroke="#8206C0" stroke-width="1.5" stroke-linecap="round" stroke-linejoin="round"/>
<path d="M20.3334 12H22.3334" stroke="#8206C0" stroke-width="1.5" stroke-linecap="round" stroke-linejoin="round"/>
</svg>
