<svg width="48" height="49" viewBox="0 0 48 49" fill="none" xmlns="http://www.w3.org/2000/svg">
<path d="M0 24.5C0 11.2452 10.7452 0.5 24 0.5C37.2548 0.5 48 11.2452 48 24.5C48 37.7548 37.2548 48.5 24 48.5C10.7452 48.5 0 37.7548 0 24.5Z" fill="#F0EFFC"/>
<path d="M33.97 30.83C33.97 31.19 33.89 31.56 33.72 31.92C33.55 32.28 33.33 32.62 33.04 32.94C32.55 33.48 32.01 33.87 31.4 34.12C30.8 34.37 30.15 34.5 29.45 34.5C28.43 34.5 27.34 34.26 26.19 33.77C25.04 33.28 23.89 32.62 22.75 31.79C21.6 30.95 20.51 30.02 19.47 28.99C18.44 27.95 17.51 26.86 16.68 25.72C15.86 24.58 15.2 23.44 14.72 22.31C14.24 21.17 14 20.08 14 19.04C14 18.36 14.12 17.71 14.36 17.11C14.6 16.5 14.98 15.94 15.51 15.44C16.15 14.81 16.85 14.5 17.59 14.5C17.87 14.5 18.15 14.56 18.4 14.68C18.66 14.8 18.89 14.98 19.07 15.24L21.39 18.51C21.57 18.76 21.7 18.99 21.79 19.21C21.88 19.42 21.93 19.63 21.93 19.82C21.93 20.06 21.86 20.3 21.72 20.53C21.59 20.76 21.4 21 21.16 21.24L20.4 22.03C20.29 22.14 20.24 22.27 20.24 22.43C20.24 22.51 20.25 22.58 20.27 22.66C20.3 22.74 20.33 22.8 20.35 22.86C20.53 23.19 20.84 23.62 21.28 24.14C21.73 24.66 22.21 25.19 22.73 25.72C23.27 26.25 23.79 26.74 24.32 27.19C24.84 27.63 25.27 27.93 25.61 28.11C25.66 28.13 25.72 28.16 25.79 28.19C25.87 28.22 25.95 28.23 26.04 28.23C26.21 28.23 26.34 28.17 26.45 28.06L27.21 27.31C27.46 27.06 27.7 26.87 27.93 26.75C28.16 26.61 28.39 26.54 28.64 26.54C28.83 26.54 29.03 26.58 29.25 26.67C29.47 26.76 29.7 26.89 29.95 27.06L33.26 29.41C33.52 29.59 33.7 29.8 33.81 30.05C33.91 30.3 33.97 30.55 33.97 30.83Z" stroke="#6E62E5" stroke-width="1.5" stroke-miterlimit="10"/>
<path d="M28.2 20.3H33M28.2 20.3V15.5V20.3Z" stroke="#6E62E5" stroke-width="1.5" stroke-linecap="round" stroke-linejoin="round"/>
</svg>
