<svg width="25" height="24" viewBox="0 0 25 24" fill="none" xmlns="http://www.w3.org/2000/svg">
<path d="M22.3334 9.00002V15C22.3334 17.5 21.8334 19.25 20.7134 20.38L14.3334 14L22.0634 6.27002C22.2434 7.06002 22.3334 7.96002 22.3334 9.00002Z" stroke="#8206C0" stroke-width="1.5" stroke-linecap="round" stroke-linejoin="round"/>
<path d="M22.0634 6.27L6.60336 21.73C3.59336 21.04 2.33337 18.96 2.33337 15V9C2.33337 4 4.33337 2 9.33337 2H15.3334C19.2934 2 21.3734 3.26 22.0634 6.27Z" stroke="#8206C0" stroke-width="1.5" stroke-linecap="round" stroke-linejoin="round"/>
<path d="M20.7134 20.38C19.5834 21.5 17.8334 22 15.3334 22H9.3334C8.2934 22 7.39339 21.91 6.60339 21.73L14.3334 14L20.7134 20.38Z" stroke="#8206C0" stroke-width="1.5" stroke-linecap="round" stroke-linejoin="round"/>
<path d="M6.57339 7.97997C7.25339 5.04997 11.6534 5.04997 12.3334 7.97997C12.7234 9.69997 11.6434 11.16 10.6934 12.06C10.0034 12.72 8.91341 12.72 8.21341 12.06C7.26341 11.16 6.17339 9.69997 6.57339 7.97997Z" stroke="#8206C0" stroke-width="1.5"/>
<path d="M9.42798 8.69995H9.43696" stroke="#8206C0" stroke-width="1.5" stroke-linecap="round" stroke-linejoin="round"/>
</svg>
