<svg width="25" height="24" viewBox="0 0 25 24" fill="none" xmlns="http://www.w3.org/2000/svg">
<path d="M2.95667 7.77998V17.51C2.95667 19.41 4.30667 20.19 5.94667 19.25L8.29667 17.91C8.80667 17.62 9.65667 17.59 10.1867 17.86L15.4367 20.49C15.9667 20.75 16.8167 20.73 17.3267 20.44L21.6567 17.96C22.2067 17.64 22.6667 16.86 22.6667 16.22V6.48998C22.6667 4.58998 21.3167 3.80998 19.6767 4.74998L17.3267 6.08998C16.8167 6.37998 15.9667 6.40998 15.4367 6.13998L10.1867 3.51998C9.65667 3.25998 8.80667 3.27998 8.29667 3.56998L3.96667 6.04998C3.40667 6.36998 2.95667 7.14998 2.95667 7.77998Z" stroke="#8206C0" stroke-width="1.5" stroke-linecap="round" stroke-linejoin="round"/>
<path d="M9.22668 4V17" stroke="#8206C0" stroke-width="1.5" stroke-linecap="round" stroke-linejoin="round"/>
<path d="M16.3966 6.62012V20.0001" stroke="#8206C0" stroke-width="1.5" stroke-linecap="round" stroke-linejoin="round"/>
</svg>
