<svg width="57" height="57" viewBox="0 0 57 57" fill="none" xmlns="http://www.w3.org/2000/svg">
<path d="M0.333984 28.5C0.333984 13.036 12.87 0.5 28.334 0.5C43.798 0.5 56.334 13.036 56.334 28.5C56.334 43.964 43.798 56.5 28.334 56.5C12.87 56.5 0.333984 43.964 0.333984 28.5Z" fill="#F0EFFC"/>
<path d="M31.7249 21.71L33.1349 24.53C33.3249 24.92 33.8349 25.29 34.2649 25.37L36.8149 25.79C38.4449 26.06 38.8249 27.24 37.6549 28.42L35.6649 30.41C35.3349 30.74 35.1449 31.39 35.2549 31.86L35.8249 34.32C36.2749 36.26 35.2349 37.02 33.5249 36L31.1349 34.58C30.7049 34.32 29.9849 34.32 29.5549 34.58L27.1649 36C25.4549 37.01 24.4149 36.26 24.8649 34.32L25.4349 31.86C25.5449 31.4 25.3549 30.75 25.0249 30.41L23.0349 28.42C21.8649 27.25 22.2449 26.07 23.8749 25.79L26.4249 25.37C26.8549 25.3 27.3649 24.92 27.5549 24.53L28.9649 21.71C29.7149 20.18 30.9549 20.18 31.7249 21.71Z" stroke="#8206C0" stroke-width="1.5" stroke-linecap="round" stroke-linejoin="round"/>
<path d="M24.334 21.5H18.334" stroke="#8206C0" stroke-width="1.5" stroke-linecap="round" stroke-linejoin="round"/>
<path d="M21.334 35.5H18.334" stroke="#8206C0" stroke-width="1.5" stroke-linecap="round" stroke-linejoin="round"/>
<path d="M19.334 28.5H18.334" stroke="#8206C0" stroke-width="1.5" stroke-linecap="round" stroke-linejoin="round"/>
</svg>
