<svg width="25" height="24" viewBox="0 0 25 24" fill="none" xmlns="http://www.w3.org/2000/svg">
<path d="M16.0567 5.21L17.4667 8.02999C17.6567 8.41999 18.1667 8.78999 18.5967 8.86999L21.1467 9.28999C22.7767 9.55999 23.1567 10.74 21.9867 11.92L19.9967 13.91C19.6667 14.24 19.4767 14.89 19.5867 15.36L20.1567 17.82C20.6067 19.76 19.5667 20.52 17.8567 19.5L15.4667 18.08C15.0367 17.82 14.3167 17.82 13.8867 18.08L11.4967 19.5C9.78668 20.51 8.7467 19.76 9.1967 17.82L9.7667 15.36C9.8767 14.9 9.6867 14.25 9.3567 13.91L7.36671 11.92C6.19671 10.75 6.57671 9.56999 8.20671 9.28999L10.7567 8.86999C11.1867 8.79999 11.6967 8.41999 11.8867 8.02999L13.2967 5.21C14.0467 3.68 15.2867 3.68 16.0567 5.21Z" stroke="#8206C0" stroke-width="1.5" stroke-linecap="round" stroke-linejoin="round"/>
<path d="M8.66663 5H2.66663" stroke="#8206C0" stroke-width="1.5" stroke-linecap="round" stroke-linejoin="round"/>
<path d="M5.66663 19H2.66663" stroke="#8206C0" stroke-width="1.5" stroke-linecap="round" stroke-linejoin="round"/>
<path d="M3.66663 12H2.66663" stroke="#8206C0" stroke-width="1.5" stroke-linecap="round" stroke-linejoin="round"/>
</svg>
