<svg width="49" height="49" viewBox="0 0 49 49" fill="none" xmlns="http://www.w3.org/2000/svg">
<path d="M0.75 24.5C0.75 11.2452 11.4952 0.5 24.75 0.5C38.0048 0.5 48.75 11.2452 48.75 24.5C48.75 37.7548 38.0048 48.5 24.75 48.5C11.4952 48.5 0.75 37.7548 0.75 24.5Z" fill="#F8F8F9"/>
<path d="M27.99 14.5H21.51C17.75 14.5 17.46 17.88 19.49 19.72L30.01 29.28C32.04 31.12 31.75 34.5 27.99 34.5H21.51C17.75 34.5 17.46 31.12 19.49 29.28L30.01 19.72C32.04 17.88 31.75 14.5 27.99 14.5Z" stroke="#6E62E5" stroke-width="1.5" stroke-linecap="round" stroke-linejoin="round"/>
</svg>
